<svg xmlns="http://www.w3.org/2000/svg" width="256" height="256" viewBox="0 0 256 256"><path d="M127.91 116.19L119.33 114.95L110.60 112.75C105.57 109.13 95.86 100.93 98.34 107.96C104.98 100.87 98.68 91.43 103.72 104.43Z" fill-rule="evenodd" fill="rgba(96,96,95,1.00)" opacity="1.00"/><path d="M130.96 129.70L122.41 128.50L113.71 126.29C108.75 122.75 99.06 114.55 101.52 121.62C108.19 114.55 101.84 105.18 106.90 118.06Z" fill-rule="evenodd" fill="rgba(96,96,95,1.00)" opacity="1.00"/><path d="M143.05 136.78C130.93 136.05 124.03 145.48 135.38 145.42C118.31 137.75 108.15 137.98 114.96 136.49C109.47 128.52 99.18 119.38 106.70 126.67C109.14 117.86 100.96 106.15 111.13 128.51Z" fill-rule="evenodd" fill="rgba(98,95,94,1.00)" opacity="1.00"/><path d="M144.46 120.16C134.37 118.94 128.72 127.27 139.87 126.96C124.39 121.34 115.89 121.40 120.80 119.92C116.05 112.83 107.31 105.67 113.32 110.83C115.11 103.06 109.18 93.22 116.61 111.32Z" fill-rule="evenodd" fill="rgba(98,94,94,1.00)" opacity="1.00"/><path d="M90.43 90.45C85.84 89.35 82.63 94.73 88.17 95.25C81.58 88.93 76.38 89.48 78.04 91.71Z" fill-rule="evenodd" fill="none" opacity="1.00"/><path d="M0.46 0.56Z" fill-rule="evenodd" fill="none"/><path d="M0.54 -0.35Z" fill-rule="evenodd" fill="none"/><path d="M1.41 -0.30Z" fill-rule="evenodd" fill="none"/></svg>